<svg width="875" height="562" viewBox="0 0 875 562" fill="none" xmlns="http://www.w3.org/2000/svg">
<path d="M349.117 21.806C323.869 21.806 298.548 22.399 273.173 23.657C124.567 31.0279 56.3278 55.4795 19.19 151.557C16.1628 159.382 13.6645 167.285 11.6038 175.227C4.28201 203.419 2.4037 232.011 0.972168 260.491C0.625681 267.385 0.21537 274.246 0.0603641 281.102C-0.121997 289.265 0.0694816 297.418 1.18188 305.626C3.23344 320.905 6.90801 336.09 9.11458 351.364C21.2689 435.11 87.0373 485.532 219.121 508.925C292.576 521.932 367.672 528.3 443.142 528.3C478.557 528.3 514.072 526.898 549.522 524.116C685.409 513.458 789.847 473.345 825.535 388.014C857.284 312.093 860.283 234.338 837.197 156.916C819.9 98.9292 762.584 62.5234 668.704 48.4078C563.482 32.5908 456.883 21.806 349.117 21.806ZM349.126 23.9119C444.793 23.9119 549.067 32.5908 667.875 50.4528C761.006 64.4521 816.827 100.398 833.795 157.293C857.183 235.707 853.272 313.157 822.179 387.498C805.329 427.789 771.966 459.717 723.011 482.395C678.178 503.161 619.658 516.495 549.085 522.032C513.825 524.797 478.183 526.199 443.142 526.199C367.426 526.199 292.376 519.704 220.088 506.902C154.365 495.264 105.875 477.13 71.8376 451.454C38.0461 425.971 18.652 393.168 12.5612 351.181C11.5126 343.916 10.1084 336.556 8.74985 329.445C7.24538 321.587 5.69531 313.457 4.61938 305.454C3.66199 298.316 3.3155 290.584 3.52522 281.13C3.63463 275.665 3.92641 270.084 4.20907 264.686L4.4279 260.552C5.87767 231.667 7.78334 203.425 15.0139 175.554C17.1202 167.44 19.6641 159.526 22.5546 152.039C40.9821 104.355 66.8682 74.7381 106.495 56.0004C142.885 38.8034 192.816 29.7588 273.456 25.7519C298.12 24.5327 323.577 23.9119 349.126 23.9119ZM352.883 32.7792C328.729 32.7792 304.503 33.3445 280.23 34.5471C138.053 41.5966 72.7676 64.9897 37.2437 156.905C34.3442 164.392 31.9553 171.951 29.9858 179.549C22.9922 206.517 21.1869 233.873 19.8191 261.117C19.4818 267.718 19.0897 274.285 18.9438 280.842C18.7797 288.65 18.9621 296.448 20.0106 304.301C21.9801 318.921 25.4997 333.447 27.6151 348.061C39.2315 428.177 102.155 476.415 228.513 498.794C298.795 511.236 370.636 517.332 442.832 517.332C476.724 517.332 510.698 515.991 544.617 513.331C674.613 503.139 774.528 464.755 808.666 383.126C839.038 310.486 841.911 236.101 819.818 162.031C803.277 106.561 748.442 71.7288 658.629 58.2283C557.966 43.093 455.98 32.7792 352.883 32.7792ZM352.892 34.8797C444.41 34.8797 544.143 43.1817 657.79 60.2678C746.828 73.6519 800.195 108.018 816.417 162.408C838.792 237.408 835.054 311.495 805.32 382.599C789.199 421.133 757.304 451.659 710.492 473.339C667.619 493.196 611.662 505.949 544.17 511.241C510.452 513.89 476.35 515.226 442.832 515.226C370.417 515.226 298.631 509.019 229.479 496.777C166.638 485.643 120.273 468.302 87.7212 443.756C55.416 419.387 36.879 388.025 31.0617 347.878C30.0496 340.923 28.7092 333.885 27.4054 327.079C25.9738 319.558 24.4876 311.788 23.4664 304.129C22.5454 297.301 22.2081 289.908 22.3996 280.875C22.5181 275.643 22.7916 270.295 23.0743 265.135L23.2749 261.184C24.6608 233.551 26.4844 206.534 33.405 179.882C35.4201 172.118 37.8455 164.547 40.6083 157.387C58.2334 111.792 82.9889 83.4724 120.865 65.566C155.651 49.1172 203.393 40.4661 280.513 36.642C304.11 35.4727 328.456 34.8797 352.892 34.8797Z" fill="#217393"/>
</svg>
