<svg xmlns="http://www.w3.org/2000/svg" xmlns:xlink="http://www.w3.org/1999/xlink" width="500" zoomAndPan="magnify" viewBox="0 0 375 374.999991" height="500" preserveAspectRatio="xMidYMid meet" version="1.0"><defs><g/></defs><rect x="-37.5" width="450" fill="#ffffff" y="-37.499999" height="449.999989" fill-opacity="0"/><rect x="-37.5" width="450" fill="#ffffff" y="-37.499999" height="449.999989" fill-opacity="0"/><g fill="#f8c737" fill-opacity="1"><g transform="translate(94.726819, 272.604433)"><g><path d="M 24.128906 -1.878906 C 35.414062 1.566406 49.515625 0.625 57.035156 -8.773438 C 65.183594 -18.804688 62.675781 -43.5625 71.765625 -51.082031 C 76.78125 -54.84375 120.652344 -51.394531 122.222656 -50.140625 C 130.683594 -42.933594 132.25 -22.878906 138.515625 -13.789062 C 147.292969 -0.941406 158.886719 -0.3125 171.109375 -10.027344 C 183.332031 -20.058594 182.078125 -30.398438 177.0625 -44.1875 L 140.398438 -147.292969 C 131.621094 -172.363281 125.667969 -210.910156 92.761719 -210.28125 C 63.617188 -209.34375 49.203125 -191.792969 40.742188 -166.09375 C 30.710938 -135.695312 21.308594 -104.984375 13.789062 -73.960938 C 8.148438 -50.769531 -8.148438 -11.28125 24.128906 -1.878906 Z M 86.179688 -95.582031 C 89 -104.984375 92.136719 -114.386719 94.957031 -123.789062 C 97.464844 -115.328125 100.285156 -107.179688 103.105469 -98.71875 C 97.464844 -97.777344 91.824219 -96.523438 86.179688 -95.582031 Z M 86.179688 -95.582031 "/></g></g></g></svg>