<svg xmlns="http://www.w3.org/2000/svg" xmlns:xlink="http://www.w3.org/1999/xlink" width="500" zoomAndPan="magnify" viewBox="0 0 375 374.999991" height="500" preserveAspectRatio="xMidYMid meet" version="1.0"><defs><clipPath id="64a235258d"><path d="M 9 23 L 353 23 L 353 373.5 L 9 373.5 Z M 9 23 " clip-rule="nonzero"/></clipPath></defs><rect x="-37.5" width="450" fill="#ffffff" y="-37.499999" height="449.999989" fill-opacity="0"/><rect x="-37.5" width="450" fill="#ffffff" y="-37.499999" height="449.999989" fill-opacity="0"/><g clip-path="url(#64a235258d)"><path fill="#aed6ff" d="M 170.3125 126.882812 C 170.3125 126.882812 174.71875 13.269531 119.972656 24.75 C 65.226562 36.234375 62.382812 96.058594 119.972656 150.449219 C 119.972656 150.449219 28.988281 103.3125 12.679688 150.449219 C -3.625 197.585938 45.292969 248.347656 112.335938 217.527344 C 112.335938 217.527344 27.175781 251.976562 59.789062 308.175781 C 92.402344 364.378906 150.382812 297.300781 157.632812 262.851562 C 157.632812 262.851562 114.144531 364.378906 201.117188 373.445312 C 201.117188 373.445312 250.035156 353.5 222.859375 261.039062 C 222.859375 261.039062 260.910156 349.875 327.949219 313.617188 C 327.949219 313.617188 367.261719 261.039062 266.070312 213.902344 C 266.070312 213.902344 375.058594 193.960938 347.878906 137.757812 C 347.878906 137.757812 317.078125 56.175781 237.355469 159.515625 C 237.355469 159.515625 303.847656 94.246094 266.070312 47.109375 C 228.292969 -0.0273438 181.1875 63.425781 170.3125 126.882812 Z M 170.3125 126.882812 " fill-opacity="1" fill-rule="nonzero"/></g></svg>