<svg xmlns="http://www.w3.org/2000/svg" xmlns:xlink="http://www.w3.org/1999/xlink" width="500" zoomAndPan="magnify" viewBox="0 0 375 374.999991" height="500" preserveAspectRatio="xMidYMid meet" version="1.0"><defs><g/></defs><rect x="-37.5" width="450" fill="#ffffff" y="-37.499999" height="449.999989" fill-opacity="0"/><rect x="-37.5" width="450" fill="#ffffff" y="-37.499999" height="449.999989" fill-opacity="0"/><g fill="#8c52ff" fill-opacity="1"><g transform="translate(151.273155, 272.604433)"><g><path d="M 5.640625 -197.746094 C 18.488281 -154.5 76.152344 -192.734375 66.125 -224.386719 C 71.140625 -240.054688 43.5625 -246.007812 33.847656 -243.1875 C 15.667969 -238.175781 0.3125 -216.238281 5.640625 -197.746094 Z M 46.695312 -4.386719 C 56.097656 -11.28125 57.351562 -22.878906 59.542969 -33.53125 C 66.4375 -68.632812 74.273438 -117.832031 58.601562 -151.679688 C 51.394531 -167.035156 33.21875 -177.691406 19.742188 -163.589844 C 10.027344 -153.246094 10.027344 -130.683594 8.773438 -117.832031 C 6.582031 -89.941406 -0.3125 -42.621094 11.910156 -16.296875 C 18.488281 -2.507812 32.90625 5.328125 46.695312 -4.386719 Z M 46.695312 -4.386719 "/></g></g></g></svg>