<svg xmlns="http://www.w3.org/2000/svg" xmlns:xlink="http://www.w3.org/1999/xlink" width="500" zoomAndPan="magnify" viewBox="0 0 375 374.999991" height="500" preserveAspectRatio="xMidYMid meet" version="1.0"><defs><g/></defs><rect x="-37.5" width="450" fill="#ffffff" y="-37.499999" height="449.999989" fill-opacity="0"/><rect x="-37.5" width="450" fill="#ffffff" y="-37.499999" height="449.999989" fill-opacity="0"/><g fill="#217393" fill-opacity="1"><g transform="translate(115.978047, 264.344717)"><g><path d="M 122.480469 -5.0625 C 143.050781 -16.457031 143.683594 -48.421875 124.378906 -61.398438 C 110.453125 -70.578125 95.894531 -67.410156 80.386719 -70.261719 C 68.675781 -72.476562 70.894531 -67.09375 68.992188 -80.386719 C 68.042969 -87.351562 69.945312 -95.578125 70.261719 -102.542969 C 71.210938 -130.707031 75.957031 -165.523438 66.777344 -193.058594 C 59.5 -215.527344 36.078125 -223.757812 19.621094 -204.449219 C 4.113281 -186.09375 5.378906 -154.128906 5.378906 -131.976562 C 5.0625 -105.707031 3.796875 -77.222656 6.328125 -50.953125 C 9.179688 -21.835938 27.851562 -9.8125 55.386719 -5.378906 C 74.375 -2.214844 104.757812 4.746094 122.480469 -5.0625 Z M 122.480469 -5.0625 "/></g></g></g></svg>