<svg width="278" height="20" viewBox="0 0 278 20" fill="none" xmlns="http://www.w3.org/2000/svg">
<path className='line-path' d="M275.485 3.8147e-06H277.033C277.613 3.8147e-06 278 0.868122 278 1.73624C278 3.04553 277.613 3.91365 277.033 3.91365C272.39 3.91365 267.747 3.91365 263.104 3.91365C260.782 3.91365 258.267 3.91365 255.946 4.34771C253.624 4.78177 251.109 4.78177 248.788 5.21583C245.886 5.64989 242.791 6.08395 239.889 6.51801C236.987 6.95207 234.085 7.39324 231.183 7.8273L222.671 9.12948H221.317L215.9 9.9976C210.096 10.8657 204.292 12.175 198.295 12.6091C192.298 13.0431 186.688 13.4772 181.077 13.4772L57.4572 13.4772C51.6534 13.4772 45.8497 13.4772 40.0459 13.9112C33.4683 14.3453 26.8907 14.7794 20.1197 16.0815C16.6374 16.5156 13.3486 17.3908 9.86639 17.8249L5.22338 18.693C3.86917 18.693 2.3215 19.1271 0.967293 19.1271C0.386916 19.1271 0 18.259 0 16.9568C0 15.6475 0.386916 14.7794 0.967293 14.7794C2.3215 14.7794 3.86917 14.3453 5.22338 14.3453L13.929 12.6091C16.8309 12.175 19.7328 11.7338 22.6347 11.2998C25.5365 10.8657 28.4384 10.8657 31.5338 10.4317C34.6291 9.9976 37.3375 9.9976 40.4328 9.56354C46.4301 9.12948 52.4273 9.12948 58.4245 9.12948L181.658 9.12948C189.009 9.12948 196.36 8.69542 203.712 7.8273L203.518 7.8273L219.382 5.21583H219.189H222.477C225.96 4.78177 229.442 3.91365 233.118 3.47959C236.793 3.04554 239.889 2.61148 243.177 2.1703C246.079 1.73624 248.981 1.30218 251.883 0.868122C254.785 0.434063 257.3 0.434063 259.815 3.8147e-06L275.485 3.8147e-06Z" fill="#217393"/>
</svg>
