<svg xmlns="http://www.w3.org/2000/svg" xmlns:xlink="http://www.w3.org/1999/xlink" width="500" zoomAndPan="magnify" viewBox="0 0 375 374.999991" height="500" preserveAspectRatio="xMidYMid meet" version="1.0">
    <defs>
        <g/>
    </defs>
    <rect x="-37.5" width="450" fill="#ffffff" y="-37.499999" height="449.999989" fill-opacity="0"/>
    <rect x="-37.5" width="450" fill="#ffffff" y="-37.499999" height="449.999989" fill-opacity="0"/>
<g fill="#e06034" fill-opacity="1"><g transform="translate(79.846204, 272.604433)">
    <g>
        <path d="M 174.871094 -1.566406 C 214.355469 12.535156 210.910156 -68.003906 209.96875 -85.554688 C 209.027344 -108.746094 205.894531 -131.9375 201.820312 -155.125 C 199.3125 -169.230469 198.375 -187.71875 186.777344 -197.746094 C 155.753906 -225.011719 123.472656 -174.554688 109.683594 -152.933594 C 94.644531 -174.554688 57.664062 -222.191406 30.085938 -188.660156 C 20.371094 -176.4375 19.742188 -158.261719 17.550781 -143.53125 C 13.789062 -118.773438 10.027344 -93.703125 7.519531 -68.632812 C 5.328125 -50.769531 0.941406 -27.890625 11.910156 -11.910156 C 21.625 1.878906 36.667969 1.878906 46.695312 -11.59375 C 68.945312 -41.679688 54.214844 -85.554688 68.320312 -117.519531 C 77.09375 -103.105469 88.375 -72.390625 108.117188 -71.140625 C 126.921875 -69.886719 144.785156 -94.328125 156.695312 -106.238281 C 159.828125 -82.734375 158.574219 -59.542969 160.140625 -36.039062 C 160.765625 -24.445312 161.707031 -6.582031 174.871094 -1.566406 Z M 174.871094 -1.566406 "/>
    </g>
</g>
    </g>
</svg>