<svg xmlns="http://www.w3.org/2000/svg" xmlns:xlink="http://www.w3.org/1999/xlink" width="500" zoomAndPan="magnify" viewBox="0 0 375 374.999991" height="500" preserveAspectRatio="xMidYMid meet" version="1.0"><defs><g/></defs><rect x="-37.5" width="450" fill="#ffffff" y="-37.499999" height="449.999989" fill-opacity="0"/><rect x="-37.5" width="450" fill="#ffffff" y="-37.499999" height="449.999989" fill-opacity="0"/><g fill="#e06034" fill-opacity="1"><g transform="translate(108.684914, 264.344717)"><g><path d="M 105.390625 -5.0625 C 152.863281 -23.101562 157.609375 -92.097656 149.699219 -134.824219 C 140.835938 -182.296875 97.476562 -201.601562 53.167969 -185.777344 C -3.796875 -165.523438 -0.949219 -102.859375 13.609375 -54.753906 C 19.9375 -33.546875 26.585938 -15.191406 48.105469 -5.695312 C 65.511719 1.898438 87.351562 1.582031 105.390625 -5.0625 Z M 66.460938 -47.789062 C 54.121094 -60.449219 55.070312 -96.210938 60.132812 -112.351562 C 63.929688 -123.746094 83.550781 -139.570312 97.160156 -132.292969 C 115.199219 -122.164062 109.1875 -78.488281 105.074219 -62.347656 C 100.007812 -43.675781 84.5 -29.433594 66.460938 -47.789062 Z M 66.460938 -47.789062 "/></g></g></g></svg>