<svg xmlns="http://www.w3.org/2000/svg" xmlns:xlink="http://www.w3.org/1999/xlink" width="500" zoomAndPan="magnify" viewBox="0 0 375 374.999991" height="500" preserveAspectRatio="xMidYMid meet" version="1.0"><defs><g/></defs><rect x="-37.5" width="450" fill="#ffffff" y="-37.499999" height="449.999989" fill-opacity="0"/><rect x="-37.5" width="450" fill="#ffffff" y="-37.499999" height="449.999989" fill-opacity="0"/><g fill="#8c52ff" fill-opacity="1"><g transform="translate(103.338579, 272.604433)"><g><path d="M 138.832031 -6.269531 C 159.828125 -10.027344 175.496094 -45.753906 151.367188 -57.351562 C 136.324219 -64.871094 115.640625 -50.457031 102.164062 -57.035156 C 89.316406 -63.304688 105.296875 -85.242188 111.253906 -94.957031 C 129.742188 -125.355469 172.363281 -167.976562 132.25 -200.882812 C 107.804688 -221.25 33.847656 -230.027344 13.164062 -202.132812 C 3.132812 -188.660156 -0.3125 -168.289062 15.355469 -157.945312 C 31.652344 -146.980469 65.183594 -153.246094 83.359375 -154.1875 C 60.796875 -122.535156 -27.265625 -39.171875 42.933594 -6.582031 C 68.320312 5.328125 112.191406 -1.566406 138.832031 -6.269531 Z M 138.832031 -6.269531 "/></g></g></g></svg>