<svg xmlns="http://www.w3.org/2000/svg" xmlns:xlink="http://www.w3.org/1999/xlink" width="500" zoomAndPan="magnify" viewBox="0 0 375 374.999991" height="500" preserveAspectRatio="xMidYMid meet" version="1.0"><defs><g/></defs><rect x="-37.5" width="450" fill="#ffffff" y="-37.499999" height="449.999989" fill-opacity="0"/><rect x="-37.5" width="450" fill="#ffffff" y="-37.499999" height="449.999989" fill-opacity="0"/><rect x="-37.5" width="450" fill="#ffffff" y="-37.499999" height="449.999989" fill-opacity="0"/><g fill="#f8c737" fill-opacity="1"><g transform="translate(102.548009, 264.344698)"><g><path d="M 140.203125 -6.328125 C 161.40625 -10.128906 177.230469 -46.207031 152.863281 -57.917969 C 137.671875 -65.511719 116.785156 -50.953125 103.175781 -57.601562 C 90.199219 -63.929688 106.339844 -86.085938 112.351562 -95.894531 C 131.023438 -126.59375 174.066406 -169.636719 133.558594 -202.867188 C 108.871094 -223.4375 34.179688 -232.300781 13.292969 -204.132812 C 3.164062 -190.523438 -0.316406 -169.953125 15.507812 -159.507812 C 31.964844 -148.433594 65.828125 -154.761719 84.183594 -155.710938 C 61.398438 -123.746094 -27.535156 -39.5625 43.359375 -6.644531 C 68.992188 5.378906 113.300781 -1.582031 140.203125 -6.328125 Z M 140.203125 -6.328125 "/></g></g></g></svg>